<svg width="2" height="2" viewBox="0 0 2 2" fill="none" xmlns="http://www.w3.org/2000/svg">
<path d="M0.75 1.5C0.704167 1.5 0.664931 1.48368 0.632292 1.45104C0.599653 1.4184 0.583333 1.37917 0.583333 1.33333V0.333334C0.583333 0.2875 0.599653 0.248264 0.632292 0.215625C0.664931 0.182986 0.704167 0.166667 0.75 0.166667H1.5C1.54583 0.166667 1.58507 0.182986 1.61771 0.215625C1.65035 0.248264 1.66667 0.2875 1.66667 0.333334V1.33333C1.66667 1.37917 1.65035 1.4184 1.61771 1.45104C1.58507 1.48368 1.54583 1.5 1.5 1.5H0.75ZM0.75 1.33333H1.5V0.333334H0.75V1.33333ZM0.416667 1.83333C0.370833 1.83333 0.331597 1.81701 0.298958 1.78438C0.266319 1.75174 0.25 1.7125 0.25 1.66667V0.5H0.416667V1.66667H1.33333V1.83333H0.416667Z" fill="white"/>
</svg>
