<svg width="4" height="4" viewBox="0 0 4 4" fill="none" xmlns="http://www.w3.org/2000/svg">
<rect width="4" height="4" rx="1" fill="#D94141"/>
<path d="M1.375 3C1.30625 3 1.2474 2.97824 1.19844 2.93472C1.14948 2.8912 1.125 2.83889 1.125 2.77778V1.33333H1V1.11111H1.625V1H2.375V1.11111H3V1.33333H2.875V2.77778C2.875 2.83889 2.85052 2.8912 2.80156 2.93472C2.7526 2.97824 2.69375 3 2.625 3H1.375ZM2.625 1.33333H1.375V2.77778H2.625V1.33333ZM1.625 2.55556H1.875V1.55556H1.625V2.55556ZM2.125 2.55556H2.375V1.55556H2.125V2.55556Z" fill="white"/>
</svg>
